<svg width="39" height="40" viewBox="0 0 39 40" fill="none" xmlns="http://www.w3.org/2000/svg">
<mask id="mask0_7631_65065" style="mask-type:luminance" maskUnits="userSpaceOnUse" x="0" y="0" width="39" height="40">
<path d="M19.3257 20.5264H19.1066C19.0889 20.5264 19.0713 20.5264 19.0536 20.5264H18.9618C18.9618 20.5264 18.9335 20.5264 18.9229 20.5264H18.8734C18.8734 20.5264 18.8452 20.5264 18.8346 20.5264H18.7816C18.7816 20.5264 18.7568 20.5264 18.7427 20.5264C18.7215 20.5264 18.7003 20.5264 18.6791 20.5264H18.6544C18.6332 20.5264 18.6085 20.5264 18.5837 20.5264C18.5767 20.5264 18.5661 20.5264 18.559 20.5264C18.5272 20.5264 18.4989 20.5264 18.4707 20.5264C18.4636 20.5264 18.4601 20.5264 18.4565 20.5264C18.4318 20.5264 18.4035 20.5264 18.3788 20.5264C18.3717 20.5264 18.3682 20.5264 18.3612 20.5264C18.3364 20.5264 18.3117 20.5264 18.287 20.5264C18.2799 20.5264 18.2693 20.5264 18.2622 20.5264C18.241 20.5264 18.2198 20.5264 18.1986 20.5264H18.1633C18.1421 20.5264 18.1244 20.5264 18.1068 20.5264C18.0962 20.5264 18.0856 20.5264 18.0714 20.5264C18.0538 20.5264 18.0326 20.5264 18.0114 20.5264C18.0008 20.5264 17.9902 20.5264 17.9831 20.5264C17.9619 20.5264 17.9407 20.5264 17.916 20.5264C17.9089 20.5264 17.8983 20.5264 17.8913 20.5264C17.8701 20.5264 17.8453 20.5264 17.8241 20.5264C17.8171 20.5264 17.81 20.5264 17.7994 20.5264C17.7393 20.5264 17.6758 20.5264 17.6157 20.5299H17.6051C17.5768 20.5299 17.5521 20.5299 17.5238 20.5299C17.5168 20.5299 17.5097 20.5299 17.5062 20.5299C17.4814 20.5299 17.4567 20.5299 17.432 20.5299C17.4249 20.5299 17.4214 20.5299 17.4143 20.5299C17.3896 20.5299 17.3613 20.5299 17.3366 20.5299C17.3366 20.5299 17.333 20.5299 17.3295 20.5299C17.3012 20.5299 17.273 20.5299 17.2447 20.5299H17.2377C17.2094 20.5299 17.1811 20.5299 17.1493 20.5299H17.1458C17.1175 20.5299 17.0893 20.5299 17.061 20.5299H17.0539C16.9303 20.5334 16.8066 20.537 16.683 20.544H16.6794C16.6512 20.544 16.6194 20.544 16.5911 20.5475H16.5876C16.5593 20.5475 16.5311 20.5475 16.5028 20.5475C16.4993 20.5475 16.4957 20.5475 16.4887 20.5475C16.4604 20.5475 16.4357 20.5475 16.4074 20.5475C16.4074 20.5475 16.4003 20.5475 16.3968 20.5475C16.3685 20.5475 16.3403 20.5475 16.312 20.551H16.3049C16.1212 20.558 15.9375 20.5685 15.7573 20.5755H15.7467C15.6867 20.5755 15.6301 20.5825 15.5701 20.586H15.5666C9.78658 20.8872 4.70613 21.8715 1.12721 23.2726C0.279293 23.6124 -0.17293 24.5371 0.0673135 25.4093C1.00356 28.6039 2.72765 31.4692 5.02057 33.781C5.04176 33.802 5.06297 33.8231 5.08417 33.8476C5.08417 33.8476 5.08416 33.8476 5.08769 33.8511C5.10889 33.8721 5.13009 33.8931 5.15128 33.9176C5.21841 33.9842 5.28908 34.0507 5.3562 34.1173C5.3774 34.1383 5.3986 34.1593 5.4198 34.1803C5.42686 34.1838 5.4304 34.1908 5.43393 34.1944C5.4516 34.2119 5.46925 34.2259 5.48339 34.2434C5.49045 34.2504 5.49753 34.2539 5.50106 34.2609C5.51519 34.2749 5.53286 34.2889 5.54699 34.3064C5.55405 34.3134 5.56112 34.3205 5.56819 34.3275C5.58232 34.3415 5.59998 34.3555 5.61412 34.3695C5.62118 34.3765 5.62825 34.3835 5.63531 34.3905C5.65298 34.4045 5.66711 34.422 5.68477 34.436C5.69184 34.4431 5.69891 34.4466 5.70244 34.4536C5.72364 34.4746 5.74836 34.4956 5.76956 34.5166C9.33788 37.7567 14.0898 39.7323 19.308 39.7323C24.5262 39.7323 29.2781 37.7567 32.8464 34.5166C32.8676 34.4956 32.8924 34.4746 32.9135 34.4536C32.9206 34.4466 32.9277 34.4431 32.9312 34.436C32.9489 34.422 32.963 34.408 32.9807 34.3905C32.9877 34.3835 32.9948 34.3765 33.0019 34.3695C33.016 34.3555 33.0337 34.3415 33.0478 34.3275C33.0549 34.3205 33.0619 34.3134 33.069 34.3064C33.0831 34.2924 33.1008 34.2784 33.1149 34.2644C33.122 34.2574 33.1291 34.2504 33.1361 34.2469C33.1538 34.2294 33.1715 34.2154 33.1856 34.1979C33.1926 34.1944 33.1962 34.1873 33.1997 34.1838C33.2209 34.1628 33.2421 34.1418 33.2633 34.1208C33.334 34.0542 33.4011 33.9877 33.4682 33.9211C33.4894 33.9001 33.5106 33.8791 33.5354 33.8546C33.5566 33.8336 33.5778 33.809 33.6025 33.788C35.8919 31.4762 37.6195 28.6109 38.5557 25.4163C38.7924 24.5441 38.3438 23.6159 37.4958 23.2796C33.9169 21.875 28.8365 20.8907 23.0565 20.593C23.0565 20.593 23.0494 20.593 23.0459 20.593C23.0176 20.593 22.9894 20.593 22.9611 20.5895C22.9328 20.5895 22.9046 20.5895 22.8763 20.586C22.8728 20.586 22.8657 20.586 22.8622 20.586C22.8339 20.586 22.8057 20.586 22.7774 20.5825C22.7491 20.5825 22.7173 20.5825 22.6891 20.579C22.5654 20.572 22.4453 20.5685 22.3216 20.5615H22.311C22.2828 20.5615 22.258 20.5615 22.2298 20.558C22.2262 20.558 22.2227 20.558 22.2156 20.558C22.1909 20.558 22.1627 20.558 22.1379 20.558C22.1344 20.558 22.1273 20.558 22.1238 20.558C22.0955 20.558 22.0708 20.558 22.0425 20.558H22.0355C22.0072 20.558 21.9754 20.558 21.9471 20.5545H21.9436C21.82 20.551 21.6963 20.544 21.5726 20.5405C21.5691 20.5405 21.5656 20.5405 21.562 20.5405C21.5338 20.5405 21.5055 20.5405 21.4773 20.5405C21.4773 20.5405 21.4737 20.5405 21.4702 20.5405C21.4419 20.5405 21.4137 20.5405 21.3854 20.5405H21.3748C21.3465 20.5405 21.3183 20.5405 21.29 20.5405C21.29 20.5405 21.2829 20.5405 21.2794 20.5405C21.2547 20.5405 21.2264 20.5405 21.2017 20.5405C21.1946 20.5405 21.1875 20.5405 21.184 20.5405C21.1593 20.5405 21.1381 20.5405 21.1098 20.5405C21.1028 20.5405 21.0957 20.5405 21.0886 20.5405C21.0604 20.5405 21.0356 20.5405 21.0074 20.5405C21.0074 20.5405 21.0003 20.5405 20.9968 20.5405C20.9367 20.5405 20.8731 20.5405 20.813 20.5369C20.806 20.5369 20.7954 20.5369 20.7883 20.5369C20.7671 20.5369 20.7459 20.5369 20.7212 20.5369C20.7141 20.5369 20.7035 20.5369 20.6965 20.5369C20.6753 20.5369 20.6541 20.5369 20.6293 20.5369C20.6187 20.5369 20.6081 20.5369 20.5975 20.5369C20.5799 20.5369 20.5587 20.5369 20.541 20.5369C20.5304 20.5369 20.5198 20.5369 20.5057 20.5369C20.488 20.5369 20.4668 20.5369 20.4492 20.5369H20.4138C20.3926 20.5369 20.3714 20.5369 20.3502 20.5369C20.3432 20.5369 20.3326 20.5369 20.3255 20.5369C20.3008 20.5369 20.276 20.5369 20.2513 20.5369C20.2442 20.5369 20.2407 20.5369 20.2336 20.5369C20.2089 20.5369 20.1842 20.5369 20.1559 20.5369C20.1524 20.5369 20.1453 20.5369 20.1382 20.5369C20.11 20.5369 20.0782 20.5369 20.0499 20.5369C20.0393 20.5369 20.0323 20.5369 20.0252 20.5369C20.0005 20.5369 19.9793 20.5369 19.9545 20.5369H19.9298C19.9086 20.5369 19.8874 20.5369 19.8662 20.5369C19.8521 20.5369 19.8415 20.5369 19.8273 20.5369H19.7743C19.7743 20.5369 19.7461 20.5369 19.7355 20.5369H19.686C19.686 20.5369 19.6578 20.5369 19.6472 20.5369H19.5553C19.5376 20.5369 19.52 20.5369 19.5023 20.5369H19.2833M5.78723 5.22272C5.76603 5.24374 5.74483 5.26125 5.7201 5.28227C5.7095 5.29278 5.69891 5.29978 5.68831 5.31029C5.67771 5.3208 5.66357 5.33131 5.65297 5.34182C5.64238 5.35233 5.62824 5.36283 5.61764 5.37334C5.60704 5.38385 5.59645 5.39086 5.58938 5.40137C5.57525 5.41187 5.56465 5.42588 5.55051 5.43639C5.53992 5.4434 5.53286 5.4504 5.52579 5.46091C5.51166 5.47492 5.49752 5.48893 5.48339 5.49944C5.47632 5.50645 5.46926 5.51345 5.46219 5.52046C5.44806 5.53447 5.43039 5.54848 5.41626 5.56249C5.41273 5.566 5.40919 5.5695 5.40566 5.573C5.30674 5.66758 5.21135 5.76215 5.11596 5.85673C5.09477 5.87424 5.0771 5.89526 5.0559 5.91628C3.9854 6.99164 3.03855 8.18609 2.23657 9.47512C2.23657 9.47512 2.23657 9.47512 2.23657 9.47862C2.22243 9.49964 2.21184 9.52065 2.19771 9.54167C2.19771 9.54517 2.19065 9.55218 2.19065 9.55568C2.17651 9.5767 2.16591 9.59421 2.15531 9.61523C2.15178 9.62223 2.14825 9.62574 2.14472 9.63274C2.13412 9.65376 2.11998 9.67127 2.10938 9.69229C2.10585 9.6993 2.10232 9.7028 2.09878 9.70981C2.08819 9.73082 2.07405 9.74834 2.06345 9.76935C2.06345 9.76935 2.05992 9.77636 2.05639 9.77986C2.01753 9.84291 1.98219 9.90596 1.94333 9.96901C1.9398 9.97602 1.93273 9.98653 1.9292 9.99353C1.9186 10.0075 1.91154 10.0251 1.90094 10.0391C1.89387 10.0496 1.8868 10.0601 1.88327 10.0741C1.8762 10.0881 1.86561 10.1021 1.85854 10.1161C1.85148 10.1301 1.84441 10.1406 1.83735 10.1547C1.83028 10.1687 1.82322 10.1827 1.81615 10.1932C1.80908 10.2037 1.80201 10.2212 1.79142 10.2352C1.78435 10.2457 1.77728 10.2597 1.77022 10.2703C1.75962 10.2878 1.75255 10.3018 1.74195 10.3193C1.73488 10.3298 1.73135 10.3403 1.72429 10.3508C1.71369 10.3718 1.70309 10.3929 1.69249 10.4104C1.68896 10.4174 1.68543 10.4244 1.68189 10.4279C1.66776 10.4559 1.65363 10.4839 1.63596 10.5084C1.63596 10.5084 1.63596 10.5154 1.63243 10.5154C1.61829 10.54 1.60417 10.5645 1.59357 10.589C1.59357 10.596 1.5865 10.603 1.58297 10.6065C1.57237 10.6275 1.55824 10.6486 1.54764 10.6731C1.54764 10.6801 1.54057 10.6871 1.53704 10.6906C1.52644 10.7116 1.51584 10.7326 1.50171 10.7571C1.50171 10.7641 1.49464 10.7712 1.49111 10.7747C1.48051 10.7992 1.46638 10.8202 1.45578 10.8447C1.45578 10.8482 1.45225 10.8552 1.44872 10.8587C0.883436 11.9551 0.420613 13.111 0.0673135 14.3125C-0.179996 15.1882 0.272227 16.1234 1.12721 16.4632C4.87925 17.9344 10.2741 18.9432 16.3968 19.1884H16.4003C16.4286 19.1884 16.4569 19.1884 16.4851 19.1919C16.4887 19.1919 16.4957 19.1919 16.4993 19.1919C16.524 19.1919 16.5487 19.1919 16.5735 19.1919C16.5805 19.1919 16.5876 19.1919 16.5947 19.1919C16.6194 19.1919 16.6441 19.1919 16.6688 19.1919H16.6794C16.7077 19.1919 16.7324 19.1919 16.7607 19.1919C16.7642 19.1919 16.7678 19.1919 16.7713 19.1919C16.895 19.1954 17.0151 19.1989 17.1387 19.2024C17.1387 19.2024 17.1458 19.2024 17.1493 19.2024C17.1776 19.2024 17.2023 19.2024 17.2306 19.2024H17.2483C17.273 19.2024 17.2977 19.2024 17.3225 19.2024C17.3295 19.2024 17.3366 19.2024 17.3436 19.2024C17.3684 19.2024 17.3931 19.2024 17.4214 19.2024C17.4249 19.2024 17.4284 19.2024 17.432 19.2024C17.4602 19.2024 17.485 19.2024 17.5132 19.2024C17.5168 19.2024 17.5238 19.2024 17.5274 19.2024C17.5556 19.2024 17.5839 19.2024 17.6122 19.2024H17.6192C17.7111 19.2024 17.8029 19.2059 17.8948 19.2094H17.9195C17.9407 19.2094 17.9584 19.2094 17.9796 19.2094C17.9902 19.2094 18.0043 19.2094 18.0149 19.2094C18.0326 19.2094 18.0538 19.2094 18.0714 19.2094C18.082 19.2094 18.0926 19.2094 18.1032 19.2094C18.1244 19.2094 18.1421 19.2094 18.1633 19.2094H18.1916C18.2128 19.2094 18.2304 19.2094 18.2516 19.2094C18.2622 19.2094 18.2764 19.2094 18.287 19.2094C18.3046 19.2094 18.3223 19.2094 18.34 19.2094C18.3506 19.2094 18.3612 19.2094 18.3753 19.2094C18.3965 19.2094 18.4177 19.2094 18.4389 19.2094C18.4495 19.2094 18.4601 19.2094 18.4671 19.2094C18.5272 19.2094 18.5837 19.2094 18.6438 19.2094H18.6862C18.7039 19.2094 18.7215 19.2094 18.7392 19.2094C18.7498 19.2094 18.7639 19.2094 18.7745 19.2094H18.831C18.831 19.2094 18.8558 19.2094 18.8664 19.2094H18.9229C18.9229 19.2094 18.9476 19.2094 18.9582 19.2094H19.0501C19.0713 19.2094 19.0889 19.2094 19.1066 19.2094H19.5376C19.5588 19.2094 19.5765 19.2094 19.5942 19.2094H19.686C19.686 19.2094 19.7108 19.2094 19.7214 19.2094H19.7779C19.7779 19.2094 19.8026 19.2094 19.8132 19.2094H19.8697C19.8697 19.2094 19.8909 19.2094 19.9051 19.2094C19.9227 19.2094 19.9404 19.2094 19.9581 19.2094H20.0005C20.0605 19.2094 20.1171 19.2094 20.1771 19.2094C20.1877 19.2094 20.1983 19.2094 20.2054 19.2094C20.2266 19.2094 20.2478 19.2094 20.269 19.2094C20.2796 19.2094 20.2937 19.2094 20.3043 19.2094C20.322 19.2094 20.3396 19.2094 20.3573 19.2094C20.3714 19.2094 20.382 19.2094 20.3962 19.2094C20.4174 19.2094 20.435 19.2094 20.4527 19.2094H20.4809C20.5021 19.2094 20.5198 19.2094 20.541 19.2094C20.5516 19.2094 20.5622 19.2094 20.5728 19.2094C20.594 19.2094 20.6117 19.2094 20.6293 19.2094C20.6435 19.2094 20.6541 19.2094 20.6647 19.2094C20.6859 19.2094 20.7035 19.2094 20.7247 19.2094H20.753C20.8448 19.2094 20.9367 19.2059 21.0286 19.2024H21.0356C21.0639 19.2024 21.0922 19.2024 21.1204 19.2024C21.124 19.2024 21.131 19.2024 21.1346 19.2024C21.1593 19.2024 21.1875 19.2024 21.2123 19.2024C21.2158 19.2024 21.2229 19.2024 21.2264 19.2024C21.2511 19.2024 21.2759 19.2024 21.3006 19.2024C21.3077 19.2024 21.3147 19.2024 21.3218 19.2024C21.3465 19.2024 21.3677 19.2024 21.3925 19.2024H21.4101C21.4384 19.2024 21.4631 19.2024 21.4914 19.2024C21.4949 19.2024 21.4985 19.2024 21.502 19.2024C21.6256 19.1989 21.7458 19.1954 21.8694 19.1919C21.8729 19.1919 21.88 19.1919 21.8835 19.1919C21.9083 19.1919 21.9365 19.1919 21.9648 19.1919H21.9789C22.0037 19.1919 22.0284 19.1919 22.0531 19.1919C22.0602 19.1919 22.0673 19.1919 22.0743 19.1919C22.0991 19.1919 22.1238 19.1919 22.1485 19.1919C22.1521 19.1919 22.1591 19.1919 22.1627 19.1919C22.1909 19.1919 22.2156 19.1919 22.2439 19.1884H22.251C22.4347 19.1814 22.6184 19.1744 22.8021 19.1639C28.6952 18.8801 33.8816 17.8888 37.517 16.4632C38.3685 16.1234 38.8207 15.1917 38.5769 14.3125C38.2236 13.111 37.7573 11.9551 37.1955 10.8552C37.1955 10.8552 37.192 10.8482 37.1885 10.8447C37.1743 10.8202 37.1637 10.7957 37.1531 10.7747C37.1531 10.7676 37.1461 10.7641 37.1425 10.7571C37.1319 10.7361 37.1213 10.7151 37.1072 10.6906C37.1037 10.6836 37.1001 10.6766 37.0966 10.6696C37.086 10.6451 37.0719 10.624 37.0613 10.5995C37.0613 10.596 37.0578 10.589 37.0542 10.5855C37.026 10.5295 36.9942 10.4734 36.9659 10.4209C36.9659 10.4209 36.9659 10.4174 36.9624 10.4139C36.9482 10.3893 36.9376 10.3648 36.9235 10.3438C36.9164 10.3333 36.9129 10.3228 36.9058 10.3123C36.8952 10.2948 36.8882 10.2808 36.8776 10.2632C36.8705 10.2527 36.8634 10.2387 36.8564 10.2282C36.8493 10.2142 36.8387 10.2002 36.8316 10.1862C36.8246 10.1722 36.8175 10.1582 36.8104 10.1477C36.8034 10.1336 36.7963 10.1231 36.7892 10.1126C36.7822 10.0986 36.7716 10.0846 36.7645 10.0706C36.7574 10.0601 36.7504 10.0496 36.7468 10.0391C36.7362 10.0216 36.7292 10.0075 36.7186 9.99003C36.715 9.98302 36.7115 9.97602 36.708 9.96901C36.6691 9.90596 36.6338 9.83941 36.5949 9.77636C36.5949 9.77285 36.5879 9.76585 36.5879 9.76235C36.5773 9.74133 36.5631 9.72382 36.5525 9.7028C36.5525 9.69579 36.5455 9.69229 36.5419 9.68879C36.5313 9.66777 36.5172 9.65026 36.5066 9.62924C36.5031 9.62224 36.4995 9.61873 36.496 9.61173C36.4854 9.59071 36.4713 9.5732 36.4607 9.55218C36.4607 9.54868 36.4571 9.54167 36.4536 9.53817C36.4395 9.51715 36.4289 9.49613 36.4147 9.47512C36.4147 9.47512 36.4147 9.47161 36.4112 9.46811C35.6092 8.17908 34.6624 6.98463 33.5954 5.91277C33.5954 5.91277 33.5954 5.91277 33.5919 5.90927C33.5742 5.89176 33.553 5.87074 33.5354 5.85323C33.44 5.75515 33.341 5.66057 33.2421 5.5695C33.2386 5.566 33.2351 5.56249 33.2315 5.55899C33.2174 5.54498 33.1997 5.53097 33.1856 5.51345C33.1785 5.50645 33.175 5.50295 33.1679 5.49594C33.1538 5.48193 33.1397 5.46792 33.1255 5.45741C33.1185 5.4504 33.1079 5.4434 33.1008 5.43289C33.0867 5.42238 33.0761 5.40837 33.0619 5.39786C33.0513 5.38735 33.0443 5.38035 33.0337 5.36984C33.0231 5.35933 33.0089 5.34882 32.9983 5.33481C32.9877 5.3243 32.9736 5.3138 32.963 5.30329C32.9524 5.29278 32.9418 5.28227 32.9312 5.27526C32.91 5.25425 32.8888 5.23673 32.8641 5.21572C29.2958 1.97563 24.5439 5.34058e-05 19.3257 5.34058e-05C14.1074 5.34058e-05 9.35202 1.97563 5.78723 5.21572" fill="white"/>
</mask>
<g mask="url(#mask0_7631_65065)">
<path d="M39.379 19.8889C39.379 30.8702 30.4017 39.7708 19.3257 39.7708C8.2498 39.7708 -0.727539 30.8702 -0.727539 19.8889C-0.727539 8.90767 8.2498 0.00706482 19.3257 0.00706482C30.4017 0.00706482 39.379 8.90767 39.379 19.8889Z" fill="#E6E6E6"/>
<path d="M36.3971 19.8889C36.3971 29.2344 28.7553 36.8144 19.3292 36.8144C9.9032 36.8144 2.25781 29.2379 2.25781 19.8889C2.25781 10.54 9.89967 2.96342 19.3292 2.96342C28.7588 2.96342 36.3971 10.54 36.3971 19.8889Z" fill="#B3B3B3"/>
<path d="M33.4118 19.889C33.4118 27.6021 27.1054 33.8546 19.3258 33.8546C11.5461 33.8546 5.23975 27.6021 5.23975 19.889C5.23975 12.1758 11.5461 5.92331 19.3258 5.92331C27.1054 5.92331 33.4118 12.1758 33.4118 19.889Z" fill="#666666"/>
<path d="M30.43 19.8889C30.43 25.9698 25.459 30.8982 19.3293 30.8982C13.1995 30.8982 8.2251 25.9698 8.2251 19.8889C8.2251 13.8081 13.196 8.87965 19.3293 8.87965C25.4626 8.87965 30.43 13.8081 30.43 19.8889Z" fill="#333333"/>
<path d="M27.4447 19.889C27.4447 24.334 23.8092 27.9384 19.3259 27.9384C14.8425 27.9384 11.207 24.334 11.207 19.889C11.207 15.4439 14.8425 11.8395 19.3259 11.8395C23.8092 11.8395 27.4447 15.4439 27.4447 19.889Z" fill="black"/>
</g>
</svg>
