<?xml version="1.0" encoding="UTF-8"?>
<svg xmlns="http://www.w3.org/2000/svg" width="149" height="45" viewBox="0 0 149 45" fill="none">
  <path fill-rule="evenodd" clip-rule="evenodd" d="M5.00569 40.0031C2.24112 40.0031 0 37.7659 0 35.0062L0 9.99377C0 7.23407 2.24112 4.99689 5.00569 4.99689C5.00569 2.23719 7.24682 3.8147e-06 10.0114 3.8147e-06H13.031C14.4133 3.8147e-06 15.5339 1.11859 15.5339 2.49844C15.5339 3.8783 14.4133 4.99689 13.031 4.99689H5.00569V40.0031H13.031C14.4133 40.0031 15.5339 41.1217 15.5339 42.5016C15.5339 43.8814 14.4133 45 13.031 45H10.0114C7.24682 45 5.00569 42.7628 5.00569 40.0031Z" fill="#242729"></path>
  <path fill-rule="evenodd" clip-rule="evenodd" d="M143.545 4.99688C146.31 4.99688 148.551 7.23406 148.551 9.99377V35.0062C148.551 37.7659 146.31 40.0031 143.545 40.0031C143.545 42.7628 141.304 45 138.539 45H135.52C134.138 45 133.017 43.8814 133.017 42.5016C133.017 41.1217 134.138 40.0031 135.52 40.0031H143.545V4.99688L135.52 4.99688C134.138 4.99688 133.017 3.87829 133.017 2.49844C133.017 1.11859 134.138 -8.04203e-08 135.52 0L138.539 4.36845e-07C141.304 5.97685e-07 143.545 2.23718 143.545 4.99688Z" fill="#242729"></path>
  <path d="M126.493 27.931C122.654 27.931 120.683 25.8765 120.683 22.0165C120.683 18.1565 122.675 16.102 126.493 16.102C130.208 16.102 131.972 18.0943 131.972 21.5392C131.972 21.9958 131.931 22.3071 131.889 22.7014H123.692C123.837 24.7559 124.646 25.5652 126.597 25.5652C128.154 25.5652 128.942 25.0672 129.004 23.9673H131.889C131.682 26.5614 129.835 27.931 126.493 27.931ZM126.514 18.3226C124.792 18.3226 123.982 19.0282 123.733 20.7921H129.108C129.025 19.1734 128.34 18.3226 126.514 18.3226Z" fill="#242729"></path>
  <path d="M112.146 27.7028V16.3511H115.238V17.8245C115.674 16.8699 116.484 16.3511 117.563 16.3511H119.638V19.1734H116.089C115.529 19.1734 115.238 19.4847 115.238 20.0866V27.7028H112.146Z" fill="#242729"></path>
  <path d="M96.2847 20.9167H93.2756C93.1926 19.3187 92.487 18.5301 90.889 18.5301C89.0628 18.5301 88.2534 19.5885 88.2534 22.0165C88.2534 24.4446 89.0628 25.503 90.889 25.503C92.487 25.503 93.1926 24.7351 93.2756 23.0334H96.2847C96.2225 26.2086 94.3755 27.931 90.9098 27.931C87.1328 27.931 85.0783 25.8765 85.0783 22.0165C85.0783 18.1773 87.1328 16.102 90.9098 16.102C94.334 16.102 96.2017 17.866 96.2847 20.9167Z" fill="#242729"></path>
  <path d="M76.7816 27.7028V16.3511H79.8737V17.8245C80.3095 16.8699 81.1189 16.3511 82.198 16.3511H84.2733V19.1734H80.7246C80.1643 19.1734 79.8737 19.4847 79.8737 20.0866V27.7028H76.7816Z" fill="#242729"></path>
  <path d="M68.8965 27.931C65.0573 27.931 63.0858 25.8765 63.0858 22.0165C63.0858 18.1565 65.078 16.102 68.8965 16.102C72.6112 16.102 74.3752 18.0943 74.3752 21.5392C74.3752 21.9958 74.3337 22.3071 74.2922 22.7014H66.0949C66.2402 24.7559 67.0495 25.5652 69.0003 25.5652C70.5567 25.5652 71.3453 25.0672 71.4076 23.9673H74.2922C74.0847 26.5614 72.2377 27.931 68.8965 27.931ZM68.9173 18.3226C67.1948 18.3226 66.3855 19.0282 66.1364 20.7921H71.5114C71.4283 19.1734 70.7435 18.3226 68.9173 18.3226Z" fill="#242729"></path>
  <path d="M54.4414 27.7028L50.7474 16.3511H53.9226L56.5582 24.9427L59.2352 16.3511H62.3274L58.5919 27.7028H54.4414Z" fill="#242729"></path>
  <path d="M42.6126 27.7028V16.3511H45.7048V17.8245C46.1406 16.8699 46.9499 16.3511 48.0291 16.3511H50.1043V19.1734H46.5556C45.9953 19.1734 45.7048 19.4847 45.7048 20.0866V27.7028H42.6126Z" fill="#242729"></path>
  <path d="M34.7276 27.931C30.8883 27.931 28.9168 25.8765 28.9168 22.0165C28.9168 18.1565 30.9091 16.102 34.7276 16.102C38.4423 16.102 40.2063 18.0943 40.2063 21.5392C40.2063 21.9958 40.1647 22.3071 40.1232 22.7014H31.9259C32.0712 24.7559 32.8806 25.5652 34.8313 25.5652C36.3878 25.5652 37.1764 25.0672 37.2386 23.9673H40.1232C39.9157 26.5614 38.0687 27.931 34.7276 27.931ZM34.7483 18.3226C33.0258 18.3226 32.2165 19.0282 31.9674 20.7921H37.3424C37.2594 19.1734 36.5745 18.3226 34.7483 18.3226Z" fill="#242729"></path>
  <path d="M21.8518 18.2603C20.3161 18.2603 19.7143 18.6546 19.7143 19.4225C19.7143 20.1696 20.0878 20.4393 21.3745 20.6261L22.9932 20.8336C25.9401 21.2072 26.9985 22.1618 26.9985 24.2993C26.9985 26.6236 25.3798 27.931 21.8103 27.931C18.4069 27.931 16.5391 26.8312 16.5391 23.9673H19.403C19.403 25.2332 20.1501 25.7728 21.8103 25.7728C23.346 25.7728 24.0516 25.3992 24.0516 24.5069C24.0516 23.7183 23.6365 23.4485 22.3084 23.2617L20.5651 23.0334C18.0333 22.6806 16.7882 21.6222 16.7882 19.6922C16.7882 17.4302 18.5314 16.102 21.8518 16.102C25.1722 16.102 26.7079 17.2642 26.7079 19.796H23.9478C23.9478 18.7169 23.3045 18.2603 21.8518 18.2603Z" fill="#242729"></path>
  <path fill-rule="evenodd" clip-rule="evenodd" d="M103.957 16.1026C107.755 16.1026 109.789 18.1571 109.789 22.0171C109.789 25.877 107.755 27.9316 103.957 27.9316C100.181 27.9316 98.1466 25.8771 98.1466 22.0171C98.1466 18.1571 100.18 16.1026 103.957 16.1026ZM101.601 18.7898C101.126 18.7898 100.741 19.1753 100.741 19.6506V24.3838C100.741 24.8591 101.126 25.2443 101.601 25.2443H106.335C106.81 25.2443 107.195 24.859 107.195 24.3838V19.6506C107.195 19.1753 106.81 18.7899 106.335 18.7898H101.601Z" fill="#242729"></path>
</svg>
